HIERARCHY
ROOT root
{
	OFFSET	0	13.1	24.9
	CHANNELS 6  Xposition Yposition Zposition Xrotation Yrotation Zrotation
	JOINT spine_1
	{
		OFFSET	0	9.99999	0
		CHANNELS 3  Xrotation Yrotation Zrotation
		JOINT spine_2
		{
			OFFSET	0	112	-10
			CHANNELS 3  Xrotation Yrotation Zrotation
			JOINT spine_3
			{
				OFFSET	0	206.5	19.3
				CHANNELS 3  Xrotation Yrotation Zrotation
				JOINT spine_4
				{
					OFFSET	0	110.4	14.6
					CHANNELS 3  Xrotation Yrotation Zrotation
					JOINT neck_1
					{
						OFFSET	0	71.8	-50.3
						CHANNELS 3  Xrotation Yrotation Zrotation
						JOINT neck_2
						{
							OFFSET	0	86.2	-25.8
							CHANNELS 3  Xrotation Yrotation Zrotation
							JOINT head_ee
							{
								OFFSET	0	179.8	-8.7
								CHANNELS 3  Xrotation Yrotation Zrotation
								End Site
								{
									OFFSET	1	0	0
								}
							}
						}
					}
					JOINT left_clavicle
					{
						OFFSET	-43.2	22.4	-70.8
						CHANNELS 3  Xrotation Yrotation Zrotation
						JOINT left_shoulder
						{
							OFFSET	-93.9	-5.79999	48.7
							CHANNELS 3  Xrotation Yrotation Zrotation
							JOINT left_elbow
							{
								OFFSET	-291.4	-30.8	15.2
								CHANNELS 3  Xrotation Yrotation Zrotation
								JOINT left_lowarm_twist
								{
									OFFSET	-110.7	-3.89999	13.6
									CHANNELS 3  Xrotation Yrotation Zrotation
									JOINT left_hand
									{
										OFFSET	-110.7	-3.89999	13.6
										CHANNELS 3  Xrotation Yrotation Zrotation
										JOINT left_ee
										{
											OFFSET	-80.8	-5.10001	12.1
											CHANNELS 3  Xrotation Yrotation Zrotation
											End Site
											{
												OFFSET	1	0	0
											}
										}
									}
								}
							}
						}
					}
					JOINT right_clavicle
					{
						OFFSET	43.2	22.4	-70.8
						CHANNELS 3  Xrotation Yrotation Zrotation
						JOINT right_shoulder
						{
							OFFSET	93.9	-5.79999	48.7
							CHANNELS 3  Xrotation Yrotation Zrotation
							JOINT right_elbow
							{
								OFFSET	291.4	-30.8	15.2
								CHANNELS 3  Xrotation Yrotation Zrotation
								JOINT right_lowarm_twist
								{
									OFFSET	110.7	-3.89999	13.6
									CHANNELS 3  Xrotation Yrotation Zrotation
									JOINT right_hand
									{
										OFFSET	110.7	-3.89999	13.6
										CHANNELS 3  Xrotation Yrotation Zrotation
										JOINT right_ee
										{
											OFFSET	80.8	-5.10001	12.1
											CHANNELS 3  Xrotation Yrotation Zrotation
											End Site
											{
												OFFSET	1	0	0
											}
										}
									}
								}
							}
						}
					}
				}
			}
		}
	}
	JOINT left_hip
	{
		OFFSET	-82.8	-127.5	0.300001
		CHANNELS 3  Xrotation Yrotation Zrotation
		JOINT left_knee
		{
			OFFSET	-28.2	-396.7	2.2
			CHANNELS 3  Xrotation Yrotation Zrotation
			JOINT left_ankle
			{
				OFFSET	-11.7	-411.3	35.4
				CHANNELS 3  Xrotation Yrotation Zrotation
				JOINT left_toes
				{
					OFFSET	0	-60	-88.6
					CHANNELS 3  Xrotation Yrotation Zrotation
					JOINT left_foot_ee
					{
						OFFSET	-22.5	-16.5	-42.2
						CHANNELS 3  Xrotation Yrotation Zrotation
						End Site
						{
							OFFSET	1	0	0
						}
					}
				}
			}
		}
	}
	JOINT right_hip
	{
		OFFSET	82.8	-127.5	0.300001
		CHANNELS 3  Xrotation Yrotation Zrotation
		JOINT right_knee
		{
			OFFSET	28.2	-396.7	2.2
			CHANNELS 3  Xrotation Yrotation Zrotation
			JOINT right_ankle
			{
				OFFSET	11.7	-411.3	35.4
				CHANNELS 3  Xrotation Yrotation Zrotation
				JOINT right_toes
				{
					OFFSET	0	-60	-88.6
					CHANNELS 3  Xrotation Yrotation Zrotation
					JOINT right_foot_ee
					{
						OFFSET	22.5	-16.5	-42.2
						CHANNELS 3  Xrotation Yrotation Zrotation
						End Site
						{
							OFFSET	1	0	0
						}
					}
				}
			}
		}
	}
}
MOTION
Frames: 10
Frame Time: 0.02
2350.1 731.279 -674.303 171.636 -78.7711 177.536 0.56005 0.0432574 0.399246 0.560139 0.0177649 0.401189 0.560293 -0.063078 0.396597 0.560074 0.000348295 0.401582 -13.8047 2.38272 -0.34136 -13.8207 4.75227 0.416215 -0.0 0.0 -0.0 -0.250162 10.1409 0.770554 11.635 -23.1001 65.0273 1.11768 -28.9708 0.288756 -5.21206 -0.212541 0.631214 -0.22905 21.6384 7.33598 -0.0 0.0 -0.0 4.40355 1.343 -8.43949 -13.4767 17.6939 -71.2305 0.322833 9.08612 -0.0256517 -4.38347 0.17492 -0.53218 0.259028 -12.6523 -6.85149 0.0 0.0 0.0 -0.292384 12.8579 -5.26042 0.961414 -0.040782 -0.141895 33.6822 19.1689 -4.38812 -4.83296 0.0 0.0 -0.0 0.0 -0.0 11.9587 20.0159 -11.5869 -43.7053 0.719165 -6.50904 12.6966 -6.29442 1.78777 13.1212 -0.0 -0.0 0.0 0.0 0.0 
2364.08 732.826 -678.06 170.852 -78.1092 176.631 0.742506 0.0401799 0.40556 0.742598 0.0142919 0.407295 0.742725 -0.0664254 0.402096 0.7425 -0.00208877 0.40754 -13.8979 2.62926 -0.564095 -13.9181 5.35946 0.285827 -0.0 0.0 -0.0 -0.195332 9.75401 0.817786 13.1687 -23.4253 63.8276 1.19667 -30.6581 0.328034 -4.93605 -0.19985 0.598285 -0.233454 20.2162 6.75806 -0.0 0.0 -0.0 3.88918 1.26471 -7.43424 -14.3929 17.491 -71.3289 0.220679 6.23883 -0.0120266 -4.64186 0.186498 -0.563121 0.206582 -13.1884 -6.72817 0.0 0.0 0.0 -1.72446 12.993 -4.55933 1.23445 -0.0527982 -0.182069 33.9975 19.4709 -4.42662 -4.74621 0.0 0.0 -0.0 0.0 -0.0 16.9529 18.7921 -12.4716 -42.6364 0.642953 -6.36335 12.2684 -5.58783 1.73093 12.786 -0.0 -0.0 0.0 0.0 0.0 
2376.93 731.677 -683.005 170.608 -78.1436 176.008 0.930053 -0.0306642 0.352152 0.93012 -0.0530103 0.349487 0.929804 -0.119901 0.332528 0.929655 -0.0658804 0.347291 -14.8832 2.55373 -0.559248 -14.9053 5.21568 0.311891 -0.0 0.0 -0.0 0.0961432 9.34862 1.27507 14.5828 -23.8184 63.1485 1.29676 -32.7143 0.380618 -5.02626 -0.20398 0.609054 -0.295671 18.7163 5.79386 -0.0 0.0 -0.0 3.42796 1.42149 -6.52187 -15.3132 16.938 -71.0527 0.204253 5.77772 -0.0103071 -4.76245 0.191949 -0.577543 0.129612 -14.2447 -6.65532 0.0 0.0 0.0 -2.98814 13.813 -3.00608 1.03829 -0.0441458 -0.153212 34.4154 19.7575 -4.47552 -4.63913 0.0 0.0 -0.0 0.0 -0.0 24.3596 17.4024 -14.0083 -41.5319 0.56709 -6.21138 10.5814 -8.25045 1.50104 12.2213 -0.0 -0.0 0.0 0.0 0.0 
2386.15 733.516 -685.655 175.076 -77.3909 179.978 1.0465 0.0437533 0.231986 1.04653 0.0289028 0.2343 1.04665 -0.0166885 0.235486 1.04658 0.0207114 0.235166 -15.9932 3.02228 1.09533 -16.0153 5.16081 2.08127 -0.0 0.0 -0.0 0.596867 9.12649 2.12212 16.0508 -24.3213 62.6171 1.40711 -34.876 0.442006 -5.19239 -0.211632 0.62887 -0.439686 16.9516 4.20765 -0.0 0.0 -0.0 3.32545 1.69296 -6.30376 -15.7755 16.0678 -70.9022 0.191667 5.42389 -0.00907882 -4.80391 0.19383 -0.582498 -0.0906591 -16.2497 -6.07021 0.0 0.0 0.0 -3.99264 13.7561 -1.6676 4.52947 -0.212847 -0.662172 33.167 19.9126 -4.34766 -5.62485 0.0 0.0 -0.0 0.0 -0.0 25.4117 17.7242 -13.4034 -40.9102 0.525687 -6.12522 11.9928 -8.49975 1.69273 13.4518 -0.0 -0.0 0.0 0.0 0.0 
2398.71 731.378 -691.626 173.163 -76.8398 177.957 1.00502 0.0744865 0.183291 1.00503 0.0626723 0.187659 1.00525 0.0252776 0.196227 1.0052 0.0559506 0.189772 -16.5153 2.9108 1.21988 -16.5353 4.89195 2.18291 -0.0 0.0 -0.0 0.829128 9.30075 2.54405 17.1035 -24.7222 62.2511 1.54576 -37.4396 0.523835 -5.0515 -0.205139 0.612066 -0.35174 13.7224 3.4292 -0.0 0.0 -0.0 2.84463 1.76326 -5.35631 -16.7005 15.4654 -70.3043 0.204339 5.78012 -0.0103158 -4.95852 0.200877 -0.600968 -0.277872 -18.4393 -5.79149 0.0 0.0 0.0 -6.30228 12.232 -0.592313 5.74237 -0.278692 -0.836516 31.9148 19.817 -4.21167 -6.17671 0.0 0.0 -0.0 0.0 -0.0 26.9777 18.5827 -13.1566 -40.1537 0.476573 -6.01978 9.26559 -10.5128 1.32166 14.3324 -0.0 -0.0 0.0 0.0 0.0 
2408.16 734.16 -694.154 173.173 -76.4992 177.958 1.01017 0.0716748 -0.0726481 1.01017 0.0761523 -0.06794 1.01008 0.0878282 -0.0519733 1.01008 0.0785177 -0.0651919 -17.6401 3.20702 1.80182 -17.6611 5.17669 2.88966 -0.0 0.0 -0.0 1.04894 8.99667 2.89775 18.0736 -25.4495 62.117 1.65688 -39.3749 0.592875 -5.05174 -0.20515 0.612094 -0.483996 14.0486 2.7371 -0.0 0.0 -0.0 2.70911 2.27574 -5.05234 -17.1712 14.7211 -69.9357 0.185703 5.25608 -0.00852375 -4.8329 0.195148 -0.585963 -0.28733 -18.3078 -5.6819 0.0 0.0 0.0 -7.87878 13.7929 0.528448 7.20928 -0.363249 -1.04549 32.3972 20.1008 -4.26898 -6.26495 0.0 0.0 -0.0 0.0 -0.0 28.3412 18.0178 -12.265 -39.2077 0.417129 -5.88705 12.6619 -9.62141 1.78357 14.9115 -0.0 -0.0 0.0 0.0 0.0 
2426.85 732.274 -697.094 172.03 -75.5986 176.552 0.933241 0.0396123 -0.194278 0.93326 0.0518944 -0.191364 0.933087 0.0880746 -0.17764 0.933048 0.0589144 -0.18932 -18.0557 3.31267 2.19111 -18.0735 5.18593 3.31395 -0.0 0.0 -0.0 1.17964 8.91349 3.11838 18.7817 -26.0419 61.5353 1.73904 -40.7403 0.645755 -5.08085 -0.206488 0.615568 -0.513817 13.2182 2.20387 -0.0 0.0 -0.0 2.42362 2.35447 -4.48461 -17.7764 14.0628 -69.46 0.191539 5.42029 -0.0090667 -4.81921 0.194526 -0.584327 -0.357668 -19.0835 -5.56634 0.0 0.0 0.0 -9.51339 13.716 1.32491 7.43497 -0.376734 -1.07745 31.7948 20.0734 -4.20331 -6.71879 0.0 0.0 -0.0 0.0 -0.0 29.8265 18.1018 -11.8669 -36.6755 0.268924 -5.52725 12.995 -9.92488 1.82857 15.3342 -0.0 -0.0 0.0 0.0 0.0 
2433.97 732.548 -699.853 175.018 -75.4531 179.152 1.02896 0.144842 -0.39398 1.02903 0.169619 -0.383965 1.02788 0.2404 -0.344104 1.02776 0.183038 -0.377752 -17.4219 3.62144 2.71744 -17.4335 5.4585 3.88833 -0.0 0.0 -0.0 1.34184 8.86109 3.3973 19.363 -26.0764 61.8183 1.7979 -41.6852 0.684534 -4.97057 -0.201429 0.602407 -0.50352 10.2069 1.00212 -0.0 0.0 -0.0 2.29822 3.43954 -4.1482 -18.1078 12.1149 -69.3751 0.188231 5.32724 -0.00875694 -4.49242 0.179785 -0.545232 -0.42317 -20.0108 -5.54472 0.0 0.0 0.0 -7.76225 12.7972 1.4907 7.52465 -0.382128 -1.09013 29.4407 20.3571 -3.9472 -7.87147 0.0 0.0 -0.0 0.0 -0.0 30.5418 18.472 -11.1938 -25.1799 -0.198309 -3.828 13.6618 -10.7686 1.91889 13.2341 -0.0 -0.0 0.0 0.0 0.0 
2442.84 733.043 -701.378 -179.954 -74.7502 -176.217 1.22981 0.187989 -0.466805 1.22991 0.217312 -0.453897 1.22816 0.29926 -0.404588 1.22801 0.231608 -0.446772 -17.3195 4.40661 4.57544 -17.2975 5.93192 5.90774 -0.0 0.0 -0.0 1.5175 7.73034 3.60945 19.5924 -26.1594 61.0909 1.84899 -42.4835 0.718779 -5.53186 -0.227445 0.669293 -0.643679 8.57478 -0.594103 -0.0 0.0 -0.0 2.28083 4.99626 -3.98194 -18.1976 9.67665 -69.8287 0.200871 5.68267 -0.00996946 -3.78975 0.148847 -0.460892 -0.170779 -20.3095 -7.16851 0.0 0.0 0.0 -6.81015 10.9669 2.21402 7.70576 -0.393081 -1.11573 28.0506 19.6476 -3.77691 -8.42838 0.0 0.0 -0.0 0.0 -0.0 30.4543 18.8024 -10.5895 -16.5736 -0.320698 -2.51431 15.4155 -8.31195 2.1472 12.166 -0.0 -0.0 0.0 0.0 0.0 
2461.9 730.48 -702.416 -176.293 -74.8033 -173.216 1.38507 0.0906844 -0.533909 1.38522 0.124474 -0.527057 1.38407 0.220594 -0.494593 1.38376 0.139715 -0.523223 -16.1437 5.0135 5.37782 -16.1017 6.52433 6.8017 -0.0 0.0 -0.0 1.57579 8.50955 3.77764 20.0977 -26.3787 61.618 1.88578 -43.046 0.74376 -5.79376 -0.239808 0.700415 -0.713522 6.97821 -1.73581 -0.0 0.0 -0.0 1.99977 4.82159 -3.4337 -18.8233 7.93827 -69.3573 0.200012 5.65853 -0.00988464 -3.46137 0.134745 -0.421351 -0.0777943 -20.748 -7.89139 0.0 0.0 0.0 -6.62998 9.6215 2.87286 6.86429 -0.342881 -0.996534 27.4685 19.5889 -3.70871 -8.78092 0.0 0.0 -0.0 0.0 -0.0 31.5249 19.0373 -9.9522 -11.3905 -0.298883 -1.71963 16.9963 -7.90981 2.35174 11.5052 -0.0 -0.0 0.0 0.0 0.0 
